PathFileType	4	(X/Y/Z)	E:\3-PhD\Data\MocapData\ElaboratedData\009\pre\dynamicElaborations\RunN1\RunN1.trc
DataRate	CameraRate	NumFrames	NumMarkers	Units	OrigDataRate	DataStartFrame
200	200	4	54	mm	200	557
Frame#	Time	FHD			LBHD			RBHD			C7			T10			CLAV			LSHO			LUUPA			LMUPA			LDUPA			LLEP			LMEP			LRAD			LUL			LRFIN			RSHO			RUPA1			RMUPA			RDUPA			RLEP			RMEP			RRAD			RUL			RUFIN			RASI			USACR			LSACR			RSACR			LTHI1			LTHI2			LTHI3			LTHI4			LTIB1			LTIB2			LTIB3			LTIB4			LLMAL			LHEE			LMT1			LMT2			RTHI			RTHI2			RTHI3			RTHI4			RLFC			RTIB1			RTIB2			RTIB3			RTIB4			RLMAL			RHEE			RMT1			RMT2			RMT5		
		X1	Y1	Z1	X2	Y2	Z2	X3	Y3	Z3	X4	Y4	Z4	X5	Y5	Z5	X6	Y6	Z6	X7	Y7	Z7	X8	Y8	Z8	X9	Y9	Z9	X10	Y10	Z10	X11	Y11	Z11	X12	Y12	Z12	X13	Y13	Z13	X14	Y14	Z14	X15	Y15	Z15	X16	Y16	Z16	X17	Y17	Z17	X18	Y18	Z18	X19	Y19	Z19	X20	Y20	Z20	X21	Y21	Z21	X22	Y22	Z22	X23	Y23	Z23	X24	Y24	Z24	X25	Y25	Z25	X26	Y26	Z26	X27	Y27	Z27	X28	Y28	Z28	X29	Y29	Z29	X30	Y30	Z30	X31	Y31	Z31	X32	Y32	Z32	X33	Y33	Z33	X34	Y34	Z34	X35	Y35	Z35	X36	Y36	Z36	X37	Y37	Z37	X38	Y38	Z38	X39	Y39	Z39	X40	Y40	Z40	X41	Y41	Z41	X42	Y42	Z42	X43	Y43	Z43	X44	Y44	Z44	X45	Y45	Z45	X46	Y46	Z46	X47	Y47	Z47	X48	Y48	Z48	X49	Y49	Z49	X50	Y50	Z50	X51	Y51	Z51	X52	Y52	Z52	X53	Y53	Z53	X54	Y54	Z54	

557	2.780000	-3014.968898	1491.805773	426.249872	-3180.258692	1561.769085	338.133592	-3148.158827	1538.507286	463.794435	-3280.814190	1435.128706	388.565540	-3477.057419	1139.429122	406.129418	-3185.945539	1300.756023	361.135484	-3204.669479	1373.900744	224.677201	-3362.681348	1380.417278	115.578140	-3380.619343	1335.175634	104.288151	-3426.719127	1372.313042	92.220114	-3542.754720	1366.013404	61.579377	-3567.795013	1368.417192	129.364258	-3669.861974	1140.663257	38.375627	-3730.369528	1177.275074	13.835308	-3683.369882	1088.518474	-17.563838	-3198.347573	1411.771695	504.316740	-3157.615362	1278.700344	608.873917	-3119.195719	1261.193678	590.757246	-3130.477480	1219.567617	633.798097	-3072.513568	1097.399811	657.723403	-3104.275804	1058.946734	599.399819	-2979.377630	1274.678075	487.751607	-2923.502928	1246.182395	511.252769	-2950.187181	1344.984632	515.197863	-3417.970735	904.661794	507.124782	-3524.094559	1068.637902	396.551088	-3543.735761	1042.597842	366.930219	-3541.662685	1040.314101	426.142681	-3322.807656	819.707905	190.169592	-3239.454209	800.999093	196.944307	-3216.286787	836.790478	219.714850	-3212.977954	744.381036	203.208918	-3139.098493	528.124739	265.393233	-3214.520189	525.435799	220.462858	-3183.427618	501.775693	239.007703	-3227.149770	434.987006	272.144246	-3359.711229	336.750268	268.719890	-3450.889725	335.687838	314.392741	-3262.010050	222.435365	341.949365	-3258.495341	221.032943	295.068638	-3606.547131	717.319358	556.594924	-3611.192385	652.005259	549.614275	-3585.486133	631.588560	537.897466	-3685.677835	611.622307	526.989894	-3741.332837	518.981415	510.989689	-3863.542652	332.647545	475.951106	-3964.526047	329.896765	516.290856	-3935.966809	294.771861	500.587127	-3965.751568	254.554036	469.454285	-4075.147880	231.644344	504.105766	-4142.718888	266.931498	450.839143	-4043.047874	77.056307	412.213617	-4046.491923	73.793980	453.993799	-4091.080797	83.437925	509.421168	
558	2.785000	-2987.438071	1493.370966	423.507030	-3152.972513	1563.621221	335.846156	-3120.488199	1540.225448	461.467715	-3253.702140	1436.797901	386.908526	-3448.886683	1141.011309	407.552661	-3158.573961	1303.066185	358.998685	-3177.710615	1375.529734	222.706467	-3335.991521	1382.593675	114.964852	-3354.446881	1337.494080	104.222986	-3400.579716	1374.877101	92.926904	-3517.178906	1369.106904	64.028793	-3540.965337	1370.225119	132.192592	-3640.434868	1141.142670	39.745972	-3702.052577	1176.708682	16.249438	-3653.612883	1089.181724	-16.571656	-3170.737360	1414.477359	501.687131	-3130.613386	1282.119875	607.756734	-3092.131946	1264.508083	590.131313	-3103.842898	1223.141394	633.116252	-3046.466615	1100.896343	658.430170	-3078.683425	1061.667629	600.673833	-2957.151048	1278.213663	485.800658	-2900.665636	1250.182563	508.808545	-2928.507865	1348.645156	513.232170	-3388.294198	905.796501	507.205289	-3495.315468	1070.478218	398.598300	-3515.178604	1044.402881	369.306727	-3512.515972	1042.095780	428.439148	-3296.290993	823.066978	190.308842	-3212.923672	804.608172	196.523739	-3189.553058	840.582934	218.761859	-3186.120654	748.136120	202.429106	-3102.460964	529.089200	263.936655	-3177.508929	521.370456	219.067595	-3144.862813	499.844248	237.684109	-3184.159612	430.468863	271.568463	-3310.283775	323.662860	269.832988	-3401.120900	315.950717	315.908215	-3204.137365	217.627505	343.522803	-3200.833717	215.847559	296.746845	-3577.938064	719.800343	556.511224	-3583.740997	654.554686	547.665252	-3558.535405	634.055264	535.151637	-3659.395487	616.001728	525.509036	-3717.317697	524.948506	508.160168	-3843.263514	340.645814	475.051746	-3943.872297	339.087401	516.550325	-3915.874402	303.613320	500.436919	-3946.297027	263.539839	469.822343	-4055.261805	242.695313	505.731508	-4119.936944	282.733685	452.807040	-4035.762123	84.132687	413.140771	-4039.026770	80.431793	455.021910	-4083.029818	94.609521	509.848559	
559	2.790000	-2959.710788	1495.001151	420.841942	-3125.579385	1565.333423	333.644375	-3092.671490	1541.840657	459.229263	-3226.470821	1438.415976	385.238400	-3420.834757	1142.863483	408.632901	-3131.154955	1305.193855	356.942058	-3150.747789	1376.944772	220.714639	-3309.463336	1384.120658	114.418417	-3328.262597	1339.122659	104.129496	-3374.513715	1376.635320	93.615600	-3491.588220	1371.002430	66.258310	-3514.205524	1370.864707	134.761277	-3610.265902	1140.136660	41.188720	-3673.017468	1174.402255	18.565191	-3622.842133	1088.273669	-15.386652	-3142.885643	1416.918039	499.400605	-3104.307808	1284.841748	606.957277	-3065.720502	1267.011743	590.117556	-3078.319281	1225.922364	632.933498	-3021.879557	1103.314695	659.236665	-3054.629195	1063.629734	602.002576	-2934.507851	1279.696655	484.124870	-2877.687868	1251.760005	506.831630	-2905.878359	1350.070703	511.398882	-3358.757172	907.397564	507.322962	-3466.779164	1072.591573	400.300402	-3486.677887	1046.424622	371.340410	-3483.622216	1044.139817	430.345007	-3270.257200	825.403750	190.390983	-3186.901165	807.091630	196.031921	-3163.268151	843.229712	217.678586	-3159.839490	750.738172	201.487299	-3067.022947	529.004024	262.449215	-3141.245234	516.264477	217.485007	-3107.306529	497.015984	236.352954	-3142.158383	425.464780	270.991847	-3261.368349	310.722947	270.891633	-3351.452674	296.709260	317.290386	-3147.668496	213.442386	345.159857	-3144.485374	211.193976	298.514649	-3548.611273	721.933751	556.389107	-3555.311003	656.773052	545.685410	-3530.541202	636.319289	532.576896	-3631.839621	619.614627	524.187269	-3691.517355	529.889190	505.506286	-3821.809188	348.282315	473.990359	-3922.107487	348.382209	516.435676	-3894.803457	312.456822	499.933059	-3925.990858	272.778360	469.681736	-4034.554817	254.456733	506.566611	-4096.170773	298.985930	453.962183	-4027.207233	92.806938	413.797886	-4030.320117	88.701491	455.771490	-4073.611926	107.410168	509.886680	
560	2.795000	-2931.792628	1496.684344	418.275602	-3098.045396	1566.928250	331.511965	-3064.712786	1543.376843	457.063707	-3199.075978	1440.018380	383.527367	-3392.917285	1144.990105	409.385631	-3103.676062	1307.168849	354.943548	-3123.774384	1378.150467	218.703644	-3283.107188	1384.991354	113.918426	-3302.062830	1340.048055	103.986705	-3348.525218	1377.560615	94.249838	-3465.974525	1371.647701	68.201332	-3487.538874	1370.320793	137.014388	-3579.352932	1137.653344	42.709722	-3643.242432	1170.375430	20.784994	-3591.076468	1085.789331	-13.993954	-3114.754226	1419.086395	497.471313	-3078.590600	1286.899801	606.442251	-3039.885432	1268.712758	590.646944	-3053.788790	1227.947781	633.220871	-2998.757092	1104.699246	660.142345	-3032.149329	1064.879900	603.389093	-2911.361164	1279.135225	482.728981	-2854.512264	1250.920351	505.364598	-2882.188091	1349.273432	509.635760	-3329.348060	909.428273	507.423610	-3438.498154	1074.942963	401.637135	-3458.318113	1048.650289	372.989194	-3455.011945	1046.421065	431.834065	-3244.599752	826.767999	190.350581	-3161.279741	808.458928	195.430194	-3137.355330	844.703412	216.533686	-3134.072115	752.177450	200.367211	-3032.832592	527.852048	260.953079	-3105.829248	510.168232	215.792420	-3070.859914	493.290248	235.047072	-3101.260978	419.959157	270.433686	-3213.190783	297.933131	271.868387	-3302.167599	278.063917	318.541064	-3092.860341	209.693555	346.794642	-3089.710575	206.894649	300.294472	-3518.599267	723.652871	556.220658	-3525.915258	658.583600	543.720300	-3501.509553	638.290985	530.195541	-3603.028362	622.360503	523.151404	-3663.983661	533.654013	503.139877	-3799.270142	355.486168	472.821126	-3899.312338	357.791960	515.958616	-3872.856108	321.297084	499.129341	-3904.948511	282.286308	469.065776	-4013.215392	266.986228	506.567599	-4071.660514	315.671910	454.274892	-4017.246308	103.160540	414.092083	-4020.235363	98.724048	456.150137	-4062.668341	121.788555	509.533401	
